<?xml version="1.0" encoding="UTF-8"?>
<svg xmlns="http://www.w3.org/2000/svg" xmlns:xlink="http://www.w3.org/1999/xlink" width="810pt" height="809.999993pt" viewBox="0 0 810 809.999993" version="1.2">
<defs>
<clipPath id="clip1">
  <path d="M 258.054688 315 L 368 315 L 368 506 L 258.054688 506 Z M 258.054688 315 "/>
</clipPath>
<clipPath id="clip2">
  <path d="M 568.066406 381.183594 L 418.53125 381.183594 L 418.53125 443.3125 L 504.605469 443.3125 C 496.578125 482.78125 463.027344 505.4375 418.53125 505.4375 C 366.011719 505.4375 323.703125 463.046875 323.703125 410.417969 C 323.703125 357.792969 366.011719 315.402344 418.53125 315.402344 C 441.140625 315.402344 461.566406 323.441406 477.613281 336.597656 L 524.296875 289.820312 C 495.851562 264.96875 459.378906 249.621094 418.53125 249.621094 C 329.539062 249.621094 258.054688 321.25 258.054688 410.417969 C 258.054688 499.589844 329.539062 571.21875 418.53125 571.21875 C 498.769531 571.21875 571.710938 512.746094 571.710938 410.417969 C 571.710938 400.917969 570.253906 390.683594 568.066406 381.183594 Z M 568.066406 381.183594 "/>
</clipPath>
<clipPath id="clip3">
  <path d="M 258.054688 249 L 571.710938 249 L 571.710938 411 L 258.054688 411 Z M 258.054688 249 "/>
</clipPath>
<clipPath id="clip4">
  <path d="M 568.066406 381.183594 L 418.53125 381.183594 L 418.53125 443.3125 L 504.605469 443.3125 C 496.578125 482.78125 463.027344 505.4375 418.53125 505.4375 C 366.011719 505.4375 323.703125 463.046875 323.703125 410.417969 C 323.703125 357.792969 366.011719 315.402344 418.53125 315.402344 C 441.140625 315.402344 461.566406 323.441406 477.613281 336.597656 L 524.296875 289.820312 C 495.851562 264.96875 459.378906 249.621094 418.53125 249.621094 C 329.539062 249.621094 258.054688 321.25 258.054688 410.417969 C 258.054688 499.589844 329.539062 571.21875 418.53125 571.21875 C 498.769531 571.21875 571.710938 512.746094 571.710938 410.417969 C 571.710938 400.917969 570.253906 390.683594 568.066406 381.183594 Z M 568.066406 381.183594 "/>
</clipPath>
<clipPath id="clip5">
  <path d="M 258.054688 249 L 571.710938 249 L 571.710938 571.21875 L 258.054688 571.21875 Z M 258.054688 249 "/>
</clipPath>
<clipPath id="clip6">
  <path d="M 568.066406 381.183594 L 418.53125 381.183594 L 418.53125 443.3125 L 504.605469 443.3125 C 496.578125 482.78125 463.027344 505.4375 418.53125 505.4375 C 366.011719 505.4375 323.703125 463.046875 323.703125 410.417969 C 323.703125 357.792969 366.011719 315.402344 418.53125 315.402344 C 441.140625 315.402344 461.566406 323.441406 477.613281 336.597656 L 524.296875 289.820312 C 495.851562 264.96875 459.378906 249.621094 418.53125 249.621094 C 329.539062 249.621094 258.054688 321.25 258.054688 410.417969 C 258.054688 499.589844 329.539062 571.21875 418.53125 571.21875 C 498.769531 571.21875 571.710938 512.746094 571.710938 410.417969 C 571.710938 400.917969 570.253906 390.683594 568.066406 381.183594 Z M 568.066406 381.183594 "/>
</clipPath>
<clipPath id="clip7">
  <path d="M 338 315 L 571.710938 315 L 571.710938 571.21875 L 338 571.21875 Z M 338 315 "/>
</clipPath>
<clipPath id="clip8">
  <path d="M 568.066406 381.183594 L 418.53125 381.183594 L 418.53125 443.3125 L 504.605469 443.3125 C 496.578125 482.78125 463.027344 505.4375 418.53125 505.4375 C 366.011719 505.4375 323.703125 463.046875 323.703125 410.417969 C 323.703125 357.792969 366.011719 315.402344 418.53125 315.402344 C 441.140625 315.402344 461.566406 323.441406 477.613281 336.597656 L 524.296875 289.820312 C 495.851562 264.96875 459.378906 249.621094 418.53125 249.621094 C 329.539062 249.621094 258.054688 321.25 258.054688 410.417969 C 258.054688 499.589844 329.539062 571.21875 418.53125 571.21875 C 498.769531 571.21875 571.710938 512.746094 571.710938 410.417969 C 571.710938 400.917969 570.253906 390.683594 568.066406 381.183594 Z M 568.066406 381.183594 "/>
</clipPath>
</defs>
<g id="surface1">
<g clip-path="url(#clip1)" clip-rule="nonzero">
<g clip-path="url(#clip2)" clip-rule="nonzero">
<path style=" stroke:none;fill-rule:nonzero;fill:rgb(98.429871%,73.728943%,1.959229%);fill-opacity:1;" d="M 243.464844 505.4375 L 243.464844 315.402344 L 367.46875 410.417969 Z M 243.464844 505.4375 "/>
</g>
</g>
<g clip-path="url(#clip3)" clip-rule="nonzero">
<g clip-path="url(#clip4)" clip-rule="nonzero">
<path style=" stroke:none;fill-rule:nonzero;fill:rgb(91.758728%,26.269531%,20.779419%);fill-opacity:1;" d="M 243.464844 315.402344 L 367.46875 410.417969 L 418.53125 365.835938 L 593.59375 337.328125 L 593.59375 235 L 243.464844 235 Z M 243.464844 315.402344 "/>
</g>
</g>
<g clip-path="url(#clip5)" clip-rule="nonzero">
<g clip-path="url(#clip6)" clip-rule="nonzero">
<path style=" stroke:none;fill-rule:nonzero;fill:rgb(20.388794%,65.879822%,32.548523%);fill-opacity:1;" d="M 243.464844 505.4375 L 462.296875 337.328125 L 519.921875 344.636719 L 593.59375 235 L 593.59375 585.839844 L 243.464844 585.839844 Z M 243.464844 505.4375 "/>
</g>
</g>
<g clip-path="url(#clip7)" clip-rule="nonzero">
<g clip-path="url(#clip8)" clip-rule="nonzero">
<path style=" stroke:none;fill-rule:nonzero;fill:rgb(25.878906%,52.159119%,95.689392%);fill-opacity:1;" d="M 593.59375 585.839844 L 367.46875 410.417969 L 338.292969 388.492188 L 593.59375 315.402344 Z M 593.59375 585.839844 "/>
</g>
</g>
</g>
</svg>
